<svg width="350" height="243" viewBox="0 0 350 243" fill="none" xmlns="http://www.w3.org/2000/svg">
<rect x="0.5" y="0.503662" width="349" height="241.731" fill="white" stroke="#FFE7CE"/>
<g clip-path="url(#clip0)">
<path d="M69.9004 36.4294C70.5601 34.9053 70.6801 33.4254 70.2534 32.0455C69.7897 30.5241 68.7863 29.5009 68.0264 28.9111C68.2542 27.1002 67.8308 24.4549 65.111 23.0277C63.1184 21.9829 60.2152 22.0414 56.4803 23.2153C53.8522 24.0341 51.757 25.1131 51.6713 25.1572L51.6612 25.1598C51.1793 25.3835 50.6725 25.6353 50.1581 25.8998C49.948 25.2631 49.6376 23.6258 49.8817 19.6921C50.1679 15.0123 49.2225 11.7363 47.0464 9.95047C44.7602 8.07458 42.0323 8.59526 41.2434 8.80211C40.4848 9.001 39.8692 9.49751 39.5247 10.2039C38.7442 11.803 39.5068 14.1757 39.9401 15.2511C39.5438 19.1815 38.1034 28.9416 35.5768 32.2091C35.5268 32.2655 35.4894 32.3293 35.4521 32.3931C34.7789 33.6182 34.4302 34.8446 34.2494 35.8864C33.5678 35.7192 32.8425 35.7149 32.1143 35.9058L25.9447 37.5234C23.6185 38.1333 22.2332 40.5179 22.8405 42.834L27.1497 59.2693C27.7596 61.5955 30.1442 62.9808 32.4603 62.3735L38.6299 60.7559C39.53 60.5199 40.2952 60.0166 40.8557 59.3508L43.3067 59.0108C43.6841 58.9659 50.3718 58.0879 56.9823 56.2142C58.2097 55.9897 59.3557 55.7432 60.4076 55.4674C62.218 54.9928 63.7587 54.4375 64.9992 53.8095C67.9217 52.3407 69.6908 50.4716 70.2564 48.2587C70.6885 46.5673 70.304 45.1008 69.9285 44.2047C71.4638 41.8565 71.2901 39.751 70.8481 38.3536C70.5928 37.545 70.2278 36.8948 69.9004 36.4294ZM31.7443 59.6427C30.9251 59.8575 30.0926 59.3624 29.8805 58.5533L25.5686 42.1079C25.3538 41.2887 25.8489 40.4562 26.6581 40.2441L32.8276 38.6265C33.6468 38.4117 34.4793 38.9068 34.6914 39.7159L39.0007 56.1512C39.2155 56.9704 38.7203 57.8029 37.9112 58.015L31.7417 59.6326L31.7443 59.6427ZM67.0009 35.925C66.6928 36.4813 66.7896 37.1802 67.2511 37.6213C67.2538 37.6314 67.8541 38.2306 68.1592 39.1883C68.5774 40.4947 68.2478 41.835 67.1753 43.1863C66.7954 43.6751 66.7677 44.3525 67.1185 44.8659C67.1211 44.876 67.9061 46.097 67.5296 47.5469C67.1701 48.9382 65.8912 50.2032 63.7327 51.2879C62.0055 52.1624 59.5361 52.8855 56.418 53.4436C56.3775 53.4543 56.327 53.4675 56.2764 53.4808C49.8102 55.3275 43.0133 56.2016 42.9399 56.2101L42.9298 56.2127L41.8764 56.3592C41.8629 56.0601 41.8137 55.7487 41.7341 55.4453L37.4222 38.9999C37.3082 38.565 37.126 38.1588 36.9012 37.7962C36.9056 37.0708 37.0162 35.4312 37.8728 33.8338C41.47 29.0426 42.7251 15.7315 42.7794 15.1552C42.8046 14.9216 42.7639 14.6836 42.6624 14.4616C42.1935 13.3739 41.8909 11.9724 42.0249 11.4941C42.5636 11.3637 44.0496 11.1362 45.235 12.1117C46.6406 13.2673 47.2684 15.8266 47.0415 19.4964C46.6922 25.0899 47.2613 27.8376 48.9194 28.6783C49.7433 29.1 50.6413 28.897 51.2276 28.4947C51.8075 28.1913 52.3623 27.9161 52.8947 27.6793C52.9325 27.6585 52.9804 27.6352 53.0182 27.6145C55.9455 26.1227 61.3995 24.2495 63.7927 25.5028C65.8236 26.5701 65.1803 28.8574 65.1045 29.1043C64.8788 29.7688 65.1836 30.4779 65.8086 30.8005C65.8214 30.8079 67.1459 31.5308 67.5492 32.8627C67.8256 33.7522 67.6422 34.784 67.0009 35.925Z" fill="#FFE7CE"/>
</g>
<g clip-path="url(#clip1)">
<path d="M249.8 47.4203C249.433 45.056 249.802 42.949 250.897 41.1796C252.095 39.2263 253.865 38.1632 255.138 37.6162C255.477 35.0087 257.026 31.4735 261.336 30.4694C264.493 29.7347 268.52 30.8686 273.302 33.859C276.67 35.9533 279.2 38.2172 279.304 38.3097L279.317 38.3171C279.908 38.8035 280.523 39.3384 281.144 39.8937C281.668 39.0821 282.694 36.9116 283.78 31.3381C285.077 24.709 287.582 20.4838 291.264 18.7824C295.132 16.9953 298.747 18.7101 299.772 19.2844C300.757 19.8367 301.436 20.7521 301.66 21.862C302.169 24.3746 300.245 27.4065 299.252 28.749C298.38 34.373 296.85 48.5042 299.189 53.976C299.239 54.0728 299.267 54.1753 299.296 54.2778C299.791 56.2299 299.833 58.0663 299.707 59.5846C300.718 59.5985 301.731 59.8553 302.677 60.3855L310.694 64.8771C313.716 66.5707 314.784 70.3978 313.097 73.4071L301.132 94.7619C299.438 97.7844 295.611 98.8518 292.602 97.1656L284.586 92.6739C283.416 92.0186 282.531 91.0395 281.991 89.908L278.697 88.5455C278.187 88.3461 269.18 84.698 260.642 79.6894C259.012 78.9315 257.503 78.1725 256.136 77.4067C253.784 76.0887 251.837 74.756 250.335 73.4308C246.792 70.3234 245.003 67.0761 245.016 63.7855C245.027 61.2705 246.095 59.365 246.943 58.2517C245.653 54.4209 246.658 51.548 247.781 49.7598C248.43 48.7248 249.175 47.9506 249.8 47.4203ZM294.59 93.6174C295.654 94.2138 296.995 93.8251 297.584 92.7738L309.556 71.4059C310.153 70.3414 309.764 69.0012 308.713 68.4122L300.697 63.9205C299.632 63.3241 298.292 63.7128 297.703 64.7641L285.737 86.1189C285.141 87.1833 285.53 88.5235 286.581 89.1126L294.597 93.6043L294.59 93.6174ZM254.026 47.7677C254.254 48.6552 253.866 49.5946 253.062 50.0423C253.055 50.0555 252.001 50.6735 251.228 51.8982C250.171 53.5682 250.145 55.5565 251.151 57.8295C251.503 58.6487 251.297 59.6033 250.621 60.192C250.614 60.2051 249.077 61.6232 249.076 63.7813C249.073 65.8516 250.398 68.0789 253.015 70.3738C255.106 72.2191 258.287 74.1225 262.433 76.0308C262.485 76.0603 262.551 76.0971 262.617 76.1339C270.964 81.0525 280.124 84.7349 280.223 84.7733L280.237 84.7806L281.652 85.3666C281.78 84.9545 281.961 84.5382 282.182 84.1439L294.155 62.776C294.471 62.2109 294.873 61.7105 295.317 61.2864C295.574 60.2733 296.014 57.9471 295.399 55.4093C292.12 47.4248 295.194 28.4094 295.327 27.5862C295.377 27.2513 295.52 26.9343 295.742 26.6615C296.79 25.3148 297.72 23.4703 297.706 22.7548C297.002 22.3776 295.013 21.5218 293.006 22.4524C290.628 23.5543 288.825 26.8953 287.811 32.0945C286.271 40.0206 284.481 43.6456 281.865 44.2169C280.563 44.5063 279.384 43.8977 278.713 43.1242C278.014 42.4911 277.34 41.9063 276.684 41.383C276.639 41.3404 276.58 41.2905 276.535 41.2479C272.994 38.1069 266.068 33.5182 262.277 34.3984C259.058 35.1504 259.126 38.573 259.142 38.9446C259.216 39.953 258.534 40.8313 257.546 41.0545C257.525 41.0603 255.416 41.5882 254.371 43.2991C253.663 44.4393 253.545 45.9444 254.026 47.7677Z" fill="#FFE7CE"/>
</g>
<g clip-path="url(#clip2)">
<path d="M7.83083 211.837C7.41966 210.887 7.34485 209.965 7.61077 209.104C7.89984 208.156 8.5252 207.518 8.99888 207.151C8.85688 206.022 9.12077 204.373 10.816 203.484C12.058 202.833 13.8675 202.869 16.1954 203.601C17.8335 204.111 19.1394 204.784 19.1929 204.811L19.1992 204.813C19.4995 204.952 19.8154 205.109 20.136 205.274C20.267 204.877 20.4605 203.857 20.3083 201.405C20.1299 198.488 20.7192 196.446 22.0755 195.333C23.5005 194.164 25.2008 194.488 25.6925 194.617C26.1653 194.741 26.549 195.051 26.7637 195.491C27.2502 196.488 26.7749 197.966 26.5048 198.637C26.7518 201.086 27.6496 207.17 29.2244 209.206C29.2556 209.242 29.2789 209.281 29.3021 209.321C29.7217 210.085 29.939 210.849 30.0517 211.498C30.4766 211.394 30.9287 211.392 31.3826 211.511L35.228 212.519C36.6779 212.899 37.5414 214.385 37.1628 215.829L34.4769 226.073C34.0968 227.523 32.6105 228.386 31.1669 228.008L27.3215 226.999C26.7604 226.852 26.2835 226.539 25.9341 226.124L24.4064 225.912C24.1712 225.884 20.0028 225.336 15.8826 224.169C15.1175 224.029 14.4032 223.875 13.7476 223.703C12.6192 223.407 11.6589 223.061 10.8857 222.67C9.0641 221.754 7.96145 220.589 7.60892 219.21C7.33962 218.156 7.57929 217.242 7.8133 216.683C6.85633 215.22 6.96461 213.907 7.24015 213.036C7.39924 212.532 7.62676 212.127 7.83083 211.837ZM31.6132 226.306C32.1238 226.439 32.6426 226.131 32.7749 225.627L35.4624 215.376C35.5963 214.866 35.2877 214.347 34.7834 214.215L30.9379 213.206C30.4273 213.072 29.9085 213.381 29.7762 213.885L27.0903 224.129C26.9564 224.64 27.2651 225.159 27.7694 225.291L31.6148 226.299L31.6132 226.306ZM9.63804 211.522C9.83008 211.869 9.76977 212.305 9.48209 212.58C9.48044 212.586 9.10627 212.96 8.91608 213.557C8.65542 214.371 8.86084 215.206 9.52933 216.048C9.76611 216.353 9.78341 216.775 9.56477 217.095C9.56312 217.102 9.07387 217.863 9.30853 218.766C9.53256 219.634 10.3297 220.422 11.6751 221.098C12.7516 221.643 14.2908 222.094 16.2343 222.442C16.2595 222.448 16.291 222.457 16.3225 222.465C20.3529 223.616 24.5893 224.161 24.635 224.166L24.6414 224.168L25.2979 224.259C25.3063 224.073 25.337 223.878 25.3866 223.689L28.0742 213.439C28.1453 213.168 28.2588 212.915 28.3989 212.689C28.3962 212.237 28.3273 211.215 27.7933 210.219C25.5513 207.233 24.7689 198.936 24.7351 198.577C24.7194 198.431 24.7448 198.283 24.808 198.145C25.1003 197.467 25.2889 196.593 25.2054 196.295C24.8696 196.214 23.9434 196.072 23.2045 196.68C22.3285 197.4 21.9372 198.995 22.0785 201.283C22.2963 204.769 21.9416 206.482 20.9081 207.006C20.3945 207.269 19.8348 207.142 19.4694 206.891C19.108 206.702 18.7622 206.531 18.4303 206.383C18.4068 206.37 18.3769 206.356 18.3534 206.343C16.5288 205.413 13.1294 204.245 11.6377 205.026C10.3718 205.692 10.7728 207.117 10.8201 207.271C10.9608 207.685 10.7708 208.127 10.3812 208.328C10.3732 208.333 9.54767 208.784 9.29632 209.614C9.124 210.168 9.23835 210.811 9.63804 211.522Z" fill="#FFE7CE"/>
</g>
<g clip-path="url(#clip3)">
<path d="M206.146 154.816C205.087 154.26 204.351 153.484 203.966 152.518C203.539 151.455 203.639 150.428 203.798 149.754C202.852 148.842 201.894 147.167 202.774 145.138C203.419 143.651 205.073 142.372 207.697 141.342C209.541 140.613 211.203 140.271 211.271 140.257L211.278 140.254C211.649 140.162 212.047 140.074 212.455 139.99C212.285 139.538 211.719 138.479 209.804 136.384C207.529 133.89 206.578 131.626 206.991 129.641C207.425 127.556 209.189 126.615 209.725 126.375C210.24 126.143 210.81 126.143 211.322 126.384C212.483 126.927 213.128 128.602 213.371 129.401C215.369 131.426 220.588 136.246 223.482 136.936C223.535 136.945 223.585 136.964 223.635 136.983C224.566 137.366 225.316 137.896 225.888 138.398C226.194 137.996 226.599 137.666 227.094 137.444L231.284 135.562C232.863 134.853 234.718 135.564 235.424 137.137L240.437 148.299C241.146 149.878 240.435 151.733 238.862 152.439L234.672 154.321C234.061 154.595 233.404 154.659 232.789 154.539L231.262 155.456C231.03 155.602 226.883 158.132 222.33 160.069C221.541 160.498 220.787 160.878 220.073 161.199C218.843 161.751 217.728 162.136 216.749 162.345C214.447 162.842 212.61 162.594 211.293 161.609C210.286 160.856 209.839 159.86 209.644 159.188C207.722 158.565 206.868 157.306 206.484 156.323C206.262 155.754 206.173 155.225 206.146 154.816ZM238.03 150.585C238.586 150.335 238.829 149.681 238.582 149.131L233.567 137.963C233.317 137.406 232.663 137.163 232.113 137.41L227.923 139.292C227.367 139.542 227.124 140.195 227.371 140.745L232.383 151.907C232.633 152.463 233.287 152.706 233.836 152.459L238.026 150.578L238.03 150.585ZM207.543 153.223C207.968 153.395 208.229 153.831 208.17 154.287C208.173 154.294 208.107 154.901 208.369 155.576C208.725 156.497 209.515 157.1 210.728 157.372C211.161 157.475 211.483 157.842 211.519 158.288C211.522 158.295 211.633 159.335 212.5 159.977C213.33 160.595 214.619 160.726 216.319 160.359C217.683 160.068 219.394 159.357 221.395 158.261C221.422 158.249 221.456 158.233 221.491 158.218C225.951 156.331 230.156 153.749 230.201 153.72L230.208 153.717L230.865 153.323C230.737 153.149 230.624 152.953 230.532 152.747L225.516 141.578C225.384 141.282 225.302 140.972 225.264 140.667C224.934 140.263 224.131 139.393 222.929 138.885C218.746 137.825 212.026 130.929 211.736 130.631C211.616 130.511 211.531 130.359 211.488 130.189C211.259 129.367 210.795 128.445 210.504 128.237C210.143 128.407 209.207 128.952 208.983 130.034C208.718 131.317 209.522 133.036 211.308 134.991C214.032 137.969 214.955 139.767 214.405 140.987C214.134 141.596 213.539 141.888 213.028 141.928C212.566 142.02 212.131 142.116 211.725 142.224C211.695 142.229 211.657 142.238 211.627 142.244C209.311 142.73 205.407 144.145 204.631 145.929C203.975 147.446 205.37 148.437 205.524 148.541C205.951 148.812 206.1 149.347 205.896 149.811C205.892 149.821 205.476 150.825 205.852 151.754C206.099 152.377 206.668 152.873 207.543 153.223Z" fill="#FFE7CE"/>
</g>
<g clip-path="url(#clip4)">
<path d="M334.829 225.849C336.041 225.047 336.835 224.019 337.181 222.804C337.568 221.467 337.321 220.237 337.045 219.442C338.077 218.223 339.03 216.081 337.717 213.736C336.755 212.018 334.599 210.675 331.3 209.752C328.982 209.098 326.93 208.888 326.846 208.88L326.838 208.877C326.378 208.811 325.886 208.753 325.382 208.702C325.532 208.134 326.086 206.786 328.144 204.018C330.588 200.723 331.46 197.87 330.717 195.521C329.936 193.054 327.688 192.133 327.01 191.908C326.359 191.692 325.671 191.762 325.081 192.116C323.745 192.915 323.171 195.019 322.975 196.014C320.808 198.707 315.091 205.175 311.678 206.365C311.615 206.382 311.557 206.411 311.499 206.44C310.42 207.017 309.579 207.749 308.949 208.427C308.529 207.979 307.999 207.629 307.374 207.422L302.078 205.662C300.081 204.998 297.927 206.085 297.266 208.073L292.578 222.181C291.914 224.178 293.001 226.332 294.989 226.993L300.285 228.753C301.058 229.01 301.859 229.006 302.588 228.786L304.548 229.707C304.846 229.854 310.168 232.404 315.91 234.187C316.917 234.608 317.875 234.975 318.778 235.275C320.332 235.791 321.727 236.12 322.936 236.252C325.78 236.571 327.97 236.045 329.441 234.693C330.566 233.659 330.984 232.4 331.137 231.564C333.384 230.575 334.262 228.948 334.605 227.713C334.804 226.998 334.847 226.347 334.829 225.849ZM295.768 224.649C295.065 224.415 294.691 223.655 294.922 222.96L299.613 208.843C299.847 208.14 300.608 207.766 301.302 207.997L306.598 209.757C307.301 209.991 307.675 210.751 307.444 211.446L302.756 225.554C302.522 226.257 301.762 226.631 301.067 226.4L295.771 224.64L295.768 224.649ZM332.944 224.095C332.453 224.356 332.19 224.914 332.318 225.458C332.315 225.467 332.469 226.193 332.235 227.041C331.918 228.198 331.036 229.023 329.605 229.502C329.093 229.679 328.749 230.163 328.761 230.706C328.758 230.715 328.75 231.985 327.782 232.868C326.854 233.717 325.312 234.034 323.212 233.798C321.528 233.615 319.372 232.966 316.819 231.886C316.784 231.874 316.741 231.86 316.698 231.846C311.075 230.112 305.674 227.507 305.616 227.478L305.607 227.475L304.765 227.08C304.898 226.854 305.01 226.602 305.097 226.342L309.789 212.225C309.913 211.852 309.973 211.467 309.981 211.094C310.331 210.564 311.195 209.414 312.586 208.652C317.511 206.857 324.788 197.697 325.103 197.3C325.233 197.141 325.317 196.947 325.348 196.736C325.524 195.714 325.971 194.542 326.298 194.255C326.755 194.417 327.953 194.96 328.357 196.241C328.835 197.76 328.074 199.936 326.155 202.518C323.228 206.453 322.333 208.739 323.147 210.147C323.55 210.85 324.305 211.13 324.927 211.115C325.497 211.169 326.035 211.232 326.539 211.313C326.576 211.316 326.623 211.322 326.66 211.324C329.519 211.629 334.412 212.859 335.569 214.921C336.548 216.674 334.984 218.043 334.811 218.188C334.328 218.568 334.213 219.233 334.517 219.768C334.523 219.78 335.149 220.942 334.808 222.111C334.586 222.896 333.959 223.564 332.944 224.095Z" fill="#FFE7CE"/>
</g>
<g clip-path="url(#clip5)">
<path d="M126.144 118.281C127.355 117.479 128.15 116.451 128.496 115.236C128.883 113.899 128.636 112.669 128.36 111.874C129.392 110.655 130.345 108.513 129.032 106.168C128.07 104.451 125.913 103.107 122.614 102.184C120.296 101.53 118.245 101.32 118.161 101.312L118.152 101.309C117.692 101.243 117.2 101.185 116.697 101.134C116.847 100.566 117.401 99.2178 119.458 96.4501C121.903 93.1555 122.774 90.3022 122.031 87.9536C121.251 85.4865 119.002 84.5656 118.325 84.3405C117.674 84.1241 116.985 84.1942 116.396 84.5477C115.06 85.3474 114.486 87.4512 114.29 88.4466C112.123 91.1392 106.406 97.6075 102.993 98.7968C102.929 98.8142 102.871 98.8432 102.814 98.8722C101.735 99.4489 100.894 100.182 100.264 100.859C99.8438 100.411 99.3141 100.062 98.689 99.8538L93.393 98.0937C91.3961 97.4301 89.2417 98.517 88.581 100.505L83.8924 114.613C83.2288 116.61 84.3156 118.765 86.3038 119.425L91.5998 121.185C92.3725 121.442 93.1739 121.439 93.9027 121.218L95.8622 122.139C96.1603 122.286 101.483 124.836 107.225 126.619C108.232 127.04 109.19 127.407 110.093 127.707C111.647 128.224 113.042 128.552 114.251 128.684C117.095 129.003 119.285 128.477 120.756 127.125C121.881 126.091 122.299 124.832 122.452 123.996C124.699 123.007 125.577 121.38 125.92 120.145C126.119 119.43 126.162 118.779 126.144 118.281ZM87.0828 117.081C86.3796 116.847 86.0057 116.087 86.2365 115.392L90.928 101.275C91.1617 100.572 91.9223 100.198 92.6168 100.429L97.9128 102.189C98.6161 102.423 98.9899 103.183 98.7591 103.878L94.0705 117.986C93.8368 118.689 93.0762 119.063 92.3817 118.833L87.0857 117.072L87.0828 117.081ZM124.259 116.527C123.767 116.788 123.505 117.346 123.632 117.89C123.629 117.899 123.783 118.625 123.55 119.473C123.233 120.63 122.351 121.456 120.919 121.934C120.407 122.111 120.064 122.595 120.076 123.139C120.073 123.147 120.065 124.417 119.097 125.301C118.169 126.149 116.627 126.466 114.526 126.231C112.843 126.047 110.687 125.398 108.134 124.318C108.099 124.307 108.056 124.292 108.012 124.278C102.389 122.544 96.9885 119.939 96.9306 119.91L96.922 119.908L96.0797 119.512C96.2126 119.286 96.3252 119.034 96.4118 118.774L101.103 104.657C101.227 104.284 101.288 103.899 101.296 103.526C101.646 102.996 102.51 101.847 103.901 101.084C108.826 99.2892 116.103 90.1288 116.418 89.7321C116.548 89.5729 116.631 89.379 116.663 89.1678C116.839 88.1463 117.286 86.9742 117.613 86.6875C118.07 86.8491 119.268 87.3919 119.671 88.6732C120.15 90.1917 119.388 92.368 117.47 94.9504C114.542 98.8848 113.648 101.171 114.462 102.579C114.865 103.282 115.62 103.562 116.242 103.547C116.812 103.601 117.35 103.665 117.854 103.745C117.891 103.748 117.937 103.754 117.975 103.757C120.834 104.061 125.727 105.292 126.883 107.353C127.863 109.106 126.299 110.476 126.125 110.62C125.643 111 125.527 111.665 125.832 112.2C125.838 112.212 126.463 113.374 126.123 114.543C125.901 115.328 125.274 115.997 124.259 116.527Z" fill="#FFE7CE"/>
</g>
<defs>
<clipPath id="clip0">
<rect width="50" height="50" fill="white" transform="translate(15.0001 15.683) rotate(-14.692)"/>
</clipPath>
<clipPath id="clip1">
<rect width="72.0348" height="72.0348" fill="white" transform="matrix(-0.872387 -0.488815 -0.488815 0.872387 333.87 38.3906)"/>
</clipPath>
<clipPath id="clip2">
<rect width="31.1645" height="31.1645" fill="white" transform="matrix(-0.967303 -0.253623 -0.253623 0.967303 42.0497 198.906)"/>
</clipPath>
<clipPath id="clip3">
<rect width="36.007" height="36.007" fill="white" transform="matrix(-0.912243 0.40965 0.40965 0.912243 227.548 118.371)"/>
</clipPath>
<clipPath id="clip4">
<rect width="43.7497" height="43.7497" fill="white" transform="translate(304.483 184.422) rotate(18.3834)"/>
</clipPath>
<clipPath id="clip5">
<rect width="43.7497" height="43.7497" fill="white" transform="translate(95.7975 76.8539) rotate(18.3834)"/>
</clipPath>
</defs>
</svg>
