<svg width="350" height="243" viewBox="0 0 350 243" fill="none" xmlns="http://www.w3.org/2000/svg">
<rect x="0.5" y="0.503662" width="349" height="241.731" fill="white" stroke="#FFD7D7"/>
<g clip-path="url(#clip0)">
<path d="M74.3284 81.7566C73.6824 82.0555 72.9513 82.1096 72.2692 81.909C69.6944 81.154 67.2301 80.4653 65.0561 79.8578L65.0449 79.8546C58.6708 78.0735 53.1664 76.5353 48.8863 74.4916C44.1017 72.2069 41.0463 69.3554 39.2709 65.5176C37.546 61.7888 37.2332 57.7573 38.3898 54.1654C39.5602 50.5309 42.1344 47.6366 45.6392 46.0153C48.2587 44.8035 51.0407 44.5219 53.9078 45.1782C55.3548 45.5096 56.7874 46.0716 58.1828 46.8547C58.4898 45.2841 58.9887 43.8285 59.6733 42.511C61.0295 39.9011 63.0453 37.9632 65.6648 36.7514C69.1692 35.1303 73.042 35.0422 76.5697 36.5034C80.0559 37.9475 82.9255 40.7963 84.6505 44.525C86.4258 48.3629 86.6211 52.5374 85.2644 57.6627C84.0509 62.2482 81.6596 67.4385 78.8906 73.4488C77.9441 75.5023 76.8718 77.83 75.7778 80.2868C75.4891 80.9356 74.9741 81.4579 74.3284 81.7566ZM46.8689 48.6735C44.1154 49.9473 42.0943 52.2163 41.1773 55.0632C40.2469 57.9528 40.5137 61.2289 41.9288 64.288C43.422 67.5158 45.9571 69.8476 50.1482 71.8488C54.1992 73.7832 59.5905 75.2897 65.8329 77.0342L65.8444 77.0373C68.0268 77.6472 70.5007 78.3386 73.0944 79.0991C74.2038 76.6218 75.2803 74.285 76.2306 72.2234C78.9424 66.3367 81.2849 61.2534 82.4334 56.9137C83.6215 52.4241 83.4857 48.9824 81.9925 45.7546C80.5774 42.6954 78.2534 40.371 75.4488 39.2092C72.6858 38.0647 69.6476 38.1361 66.8945 39.4097C64.8774 40.3428 63.3221 41.8407 62.2718 43.8615C61.3361 45.6629 60.9802 47.5575 60.8463 48.83C60.7775 49.4843 60.3803 50.0396 59.7838 50.3155C59.1873 50.5915 58.507 50.5346 57.9637 50.1634C56.9076 49.4415 55.2333 48.4861 53.2542 48.033C51.0341 47.5251 48.8856 47.7406 46.8689 48.6735Z" fill="#FFD7D7"/>
</g>
<g clip-path="url(#clip1)">
<path d="M271.434 76.9937C270.554 76.707 269.81 76.1117 269.337 75.3172C267.551 72.32 265.812 69.4836 264.278 66.9815L264.27 66.9685C259.772 59.6324 255.887 53.2971 253.616 47.5633C251.078 41.1533 250.689 35.7331 252.393 30.5053C254.047 25.4261 257.316 21.3076 261.596 18.9079C265.926 16.4799 270.94 15.9991 275.714 17.5546C279.282 18.7171 282.182 20.9099 284.334 24.0717C285.419 25.6676 286.288 27.4705 286.924 29.4512C288.606 28.2261 290.369 27.2804 292.187 26.6306C295.789 25.3432 299.424 25.2798 302.992 26.4424C307.766 27.9977 311.534 31.3399 313.603 35.853C315.648 40.3133 315.862 45.5666 314.207 50.6458C312.504 55.8736 308.997 60.0244 303.17 63.7083C297.957 67.0043 291.087 69.8349 283.131 73.1127C280.413 74.2323 277.332 75.5019 274.116 76.8752C273.266 77.2381 272.314 77.2803 271.434 76.9937ZM274.534 21.1756C270.783 19.9535 266.85 20.3278 263.458 22.2294C260.015 24.16 257.371 27.5178 256.013 31.685C254.58 36.0818 254.933 40.5465 257.157 46.1611C259.306 51.5882 263.111 57.7932 267.516 64.978L267.524 64.9911C269.065 67.5029 270.81 70.3504 272.609 73.3696C275.858 71.9903 278.951 70.7157 281.68 69.5919C289.472 66.3812 296.201 63.6095 301.135 60.49C306.239 57.2628 309.154 53.863 310.587 49.4661C311.945 45.299 311.786 41.0281 310.141 37.4399C308.521 33.905 305.563 31.2853 301.812 30.0634C299.065 29.1682 296.258 29.2197 293.469 30.2163C290.984 31.1051 288.968 32.5957 287.715 33.6898C287.071 34.2524 286.201 34.4302 285.388 34.1654C284.576 33.9007 283.978 33.2447 283.789 32.4104C283.421 30.7882 282.671 28.3965 281.185 26.214C279.519 23.766 277.281 22.0706 274.534 21.1756Z" fill="#FFD7D7"/>
</g>
<g clip-path="url(#clip2)">
<path d="M28.4031 223.178C27.84 222.995 27.3637 222.614 27.0614 222.105C25.9188 220.188 24.8062 218.373 23.8245 216.772L23.8195 216.764C20.9413 212.07 18.456 208.017 17.0031 204.348C15.3791 200.247 15.1302 196.779 16.22 193.434C17.2788 190.184 19.37 187.549 22.1082 186.014C24.879 184.46 28.0867 184.153 31.1412 185.148C33.4242 185.892 35.2798 187.295 36.6564 189.318C37.3511 190.339 37.9065 191.492 38.314 192.76C39.3901 191.976 40.5182 191.371 41.6813 190.955C43.9854 190.131 46.3113 190.091 48.5943 190.835C51.6485 191.83 54.0596 193.968 55.3834 196.856C56.6916 199.709 56.8288 203.071 55.7699 206.32C54.6801 209.665 52.4363 212.321 48.7081 214.678C45.3729 216.787 40.9771 218.598 35.887 220.695C34.1476 221.411 32.1763 222.224 30.1187 223.102C29.5754 223.334 28.9658 223.361 28.4031 223.178ZM30.3864 187.465C27.9866 186.683 25.4701 186.922 23.2996 188.139C21.0968 189.374 19.4052 191.523 18.5365 194.189C17.6199 197.002 17.8457 199.859 19.2683 203.451C20.6433 206.923 23.0777 210.893 25.8963 215.49L25.9016 215.499C26.887 217.106 28.004 218.928 29.1549 220.859C31.2335 219.977 33.2125 219.161 34.9587 218.442C39.9441 216.388 44.2495 214.615 47.4061 212.619C50.6716 210.554 52.5369 208.379 53.4535 205.566C54.3222 202.899 54.2208 200.167 53.1685 197.871C52.1317 195.609 50.2389 193.933 47.8395 193.151C46.0815 192.579 44.2854 192.612 42.5012 193.249C40.9111 193.818 39.6217 194.772 38.8199 195.472C38.4076 195.832 37.8511 195.945 37.3312 195.776C36.8113 195.607 36.4287 195.187 36.3076 194.653C36.0723 193.615 35.5923 192.085 34.6421 190.689C33.576 189.122 32.144 188.038 30.3864 187.465Z" fill="#FFD7D7"/>
</g>
<g clip-path="url(#clip3)">
<path d="M302.383 223.669C302.771 223.542 303.099 223.28 303.307 222.93C304.094 221.609 304.86 220.36 305.536 219.257L305.54 219.251C307.522 216.019 309.233 213.227 310.234 210.701C311.352 207.877 311.524 205.488 310.773 203.185C310.044 200.947 308.604 199.132 306.718 198.075C304.81 197.005 302.601 196.793 300.497 197.479C298.925 197.991 297.647 198.957 296.699 200.35C296.221 201.053 295.838 201.848 295.558 202.721C294.817 202.181 294.04 201.764 293.239 201.478C291.652 200.91 290.05 200.882 288.478 201.395C286.375 202.08 284.714 203.553 283.802 205.541C282.902 207.507 282.807 209.821 283.536 212.059C284.287 214.363 285.832 216.192 288.4 217.815C290.696 219.267 293.724 220.514 297.229 221.959C298.427 222.452 299.784 223.011 301.201 223.616C301.576 223.776 301.995 223.795 302.383 223.669ZM301.017 199.074C302.67 198.536 304.403 198.701 305.898 199.538C307.415 200.389 308.58 201.869 309.178 203.705C309.809 205.642 309.653 207.609 308.674 210.083C307.727 212.474 306.05 215.209 304.109 218.374L304.106 218.38C303.427 219.487 302.658 220.741 301.865 222.072C300.434 221.464 299.071 220.902 297.868 220.407C294.435 218.993 291.47 217.771 289.296 216.397C287.047 214.975 285.763 213.477 285.132 211.539C284.533 209.703 284.603 207.821 285.328 206.24C286.042 204.683 287.345 203.529 288.998 202.99C290.208 202.596 291.445 202.618 292.674 203.058C293.769 203.449 294.657 204.106 295.209 204.588C295.493 204.836 295.876 204.914 296.234 204.798C296.592 204.681 296.856 204.392 296.939 204.024C297.101 203.31 297.432 202.256 298.086 201.294C298.821 200.215 299.807 199.468 301.017 199.074Z" fill="#FFD7D7"/>
</g>
<g clip-path="url(#clip4)">
<path d="M118.989 157.013C119.385 157.112 119.802 157.063 120.164 156.876C121.531 156.173 122.843 155.519 124 154.942L124.006 154.939C127.4 153.247 130.33 151.786 132.517 150.173C134.962 148.37 136.372 146.435 136.956 144.084C137.523 141.8 137.263 139.498 136.223 137.602C135.172 135.684 133.41 134.334 131.263 133.801C129.658 133.402 128.062 133.545 126.52 134.225C125.742 134.567 124.997 135.039 124.297 135.63C123.954 134.78 123.516 134.015 122.988 133.348C121.943 132.026 120.599 131.154 118.994 130.756C116.847 130.223 114.659 130.592 112.832 131.796C111.027 132.986 109.721 134.899 109.153 137.183C108.57 139.535 108.912 141.904 110.23 144.641C111.408 147.09 113.315 149.751 115.523 152.833C116.278 153.886 117.133 155.079 118.015 156.343C118.247 156.677 118.593 156.915 118.989 157.013ZM130.859 135.429C132.546 135.848 133.928 136.906 134.752 138.409C135.588 139.934 135.793 141.806 135.327 143.68C134.837 145.657 133.663 147.244 131.521 148.823C129.451 150.35 126.581 151.78 123.258 153.437L123.252 153.44C122.09 154.02 120.773 154.676 119.396 155.385C118.504 154.111 117.645 152.913 116.887 151.856C114.725 148.837 112.857 146.231 111.741 143.913C110.587 141.516 110.291 139.565 110.782 137.587C111.247 135.713 112.303 134.154 113.755 133.197C115.186 132.254 116.903 131.966 118.59 132.384C119.826 132.691 120.863 133.365 121.672 134.389C122.394 135.301 122.799 136.328 123.012 137.03C123.121 137.39 123.405 137.66 123.77 137.751C124.136 137.841 124.512 137.736 124.778 137.468C125.294 136.948 126.133 136.229 127.197 135.76C128.391 135.234 129.623 135.123 130.859 135.429Z" fill="#FFD7D7"/>
</g>
<g clip-path="url(#clip5)">
<path d="M212.216 186.171C212.741 186.141 213.237 185.921 213.612 185.553C215.03 184.163 216.398 182.855 217.605 181.701L217.611 181.695C221.15 178.312 224.206 175.39 226.287 172.566C228.613 169.408 229.613 166.482 229.435 163.36C229.261 160.325 228.06 157.586 226.054 155.645C224.024 153.681 221.336 152.689 218.484 152.852C216.353 152.974 214.439 153.76 212.797 155.187C211.968 155.907 211.229 156.773 210.591 157.77C209.844 156.852 209.011 156.076 208.105 155.455C206.311 154.224 204.32 153.662 202.189 153.784C199.337 153.947 196.779 155.239 194.986 157.422C193.215 159.579 192.335 162.437 192.508 165.472C192.687 168.595 194.014 171.387 196.685 174.259C199.074 176.828 202.443 179.382 206.344 182.339C207.677 183.349 209.188 184.495 210.758 185.717C211.172 186.039 211.69 186.201 212.216 186.171ZM218.608 155.015C220.848 154.887 222.958 155.664 224.548 157.202C226.162 158.763 227.129 160.994 227.272 163.483C227.422 166.11 226.58 168.515 224.542 171.281C222.573 173.954 219.58 176.816 216.114 180.129L216.108 180.135C214.896 181.294 213.523 182.607 212.095 184.007C210.508 182.777 208.991 181.627 207.653 180.613C203.832 177.716 200.533 175.215 198.271 172.783C195.932 170.268 194.821 167.974 194.671 165.348C194.529 162.859 195.235 160.532 196.661 158.797C198.065 157.087 200.072 156.075 202.313 155.947C203.954 155.853 205.491 156.289 206.88 157.242C208.118 158.091 209.011 159.203 209.541 159.987C209.814 160.39 210.267 160.614 210.752 160.586C211.238 160.559 211.662 160.284 211.887 159.853C212.325 159.014 213.084 157.807 214.218 156.822C215.49 155.717 216.967 155.109 218.608 155.015Z" fill="#FFD7D7"/>
</g>
<defs>
<clipPath id="clip0">
<rect width="50" height="49.9999" fill="white" transform="translate(31.814 49.398) rotate(-24.8252)"/>
</clipPath>
<clipPath id="clip1">
<rect width="65.0133" height="65.0131" fill="white" transform="translate(259.547 8.54767) rotate(18.0466)"/>
</clipPath>
<clipPath id="clip2">
<rect width="41.5964" height="41.5963" fill="white" transform="translate(20.7974 179.385) rotate(18.0466)"/>
</clipPath>
<clipPath id="clip3">
<rect width="28.6461" height="28.646" fill="white" transform="matrix(-0.950805 0.309791 0.309791 0.950805 307.621 193.51)"/>
</clipPath>
<clipPath id="clip4">
<rect width="28.6461" height="28.646" fill="white" transform="matrix(-0.97055 -0.240901 -0.240901 0.97055 139.407 134.208)"/>
</clipPath>
<clipPath id="clip5">
<rect width="36.9868" height="36.9868" fill="white" transform="matrix(-0.998368 0.0571024 0.0571024 0.998368 228.684 150.243)"/>
</clipPath>
</defs>
</svg>
