<svg width="350" height="243" viewBox="0 0 350 243" fill="none" xmlns="http://www.w3.org/2000/svg">
<rect y="0.00366211" width="350" height="242.731" fill="white"/>
<rect x="0.5" y="0.503662" width="349" height="241.731" stroke="#22A800" stroke-opacity="0.3"/>
<path d="M47.1727 47.8213L64.3181 44.3163L64.8188 46.7656L47.6734 50.2706L47.1727 47.8213ZM47.9238 51.4953L65.0692 47.9903L65.5699 50.4397L58.2219 51.9418L61.4765 67.8625L59.0272 68.3632L55.7725 52.4425L48.4245 53.9447L47.9238 51.4953Z" fill="#22A800" fill-opacity="0.3"/>
<path fill-rule="evenodd" clip-rule="evenodd" d="M62.4527 78.879C74.486 76.419 82.2467 64.67 79.7868 52.6367C77.3268 40.6035 65.5778 32.8428 53.5445 35.3027C41.5113 37.7626 33.7506 49.5117 36.2105 61.5449C38.6704 73.5782 50.4195 81.3389 62.4527 78.879ZM63.0058 81.5843C76.5331 78.8189 85.2574 65.611 82.4921 52.0837C79.7267 38.5563 66.5188 29.832 52.9915 32.5974C39.4641 35.3628 30.7398 48.5706 33.5052 62.098C36.2706 75.6253 49.4784 84.3496 63.0058 81.5843Z" fill="#22A800" fill-opacity="0.3"/>
<path d="M281.196 40.367L304.694 43.0051L304.317 46.3619L280.819 43.7239L281.196 40.367ZM280.63 45.4023L304.128 48.0403L303.751 51.3971L293.681 50.2665L291.231 72.0859L287.874 71.709L290.324 49.8897L280.254 48.7591L280.63 45.4023Z" fill="#22A800" fill-opacity="0.3"/>
<path fill-rule="evenodd" clip-rule="evenodd" d="M287.896 86.6524C304.388 88.5039 319.258 76.6357 321.109 60.1441C322.961 43.6525 311.093 28.7826 294.601 26.9311C278.11 25.0797 263.24 36.9478 261.388 53.4394C259.537 69.931 271.405 84.8009 287.896 86.6524ZM287.48 90.36C306.019 92.4414 322.736 79.0996 324.817 60.5604C326.898 42.0211 313.557 25.3048 295.017 23.2235C276.478 21.1422 259.762 34.4839 257.68 53.0232C255.599 71.5624 268.941 88.2787 287.48 90.36Z" fill="#22A800" fill-opacity="0.3"/>
<path d="M29.5005 209.424L41.8003 210.805L41.603 212.562L29.3033 211.182L29.5005 209.424ZM29.2046 212.06L41.5044 213.441L41.3071 215.198L36.0358 214.606L34.7536 226.027L32.9965 225.83L34.2787 214.409L29.0074 213.817L29.2046 212.06Z" fill="#22A800" fill-opacity="0.3"/>
<path fill-rule="evenodd" clip-rule="evenodd" d="M33.008 233.652C41.6404 234.621 49.4239 228.409 50.3931 219.777C51.3622 211.144 45.1499 203.361 36.5175 202.392C27.8851 201.422 20.1015 207.635 19.1324 216.267C18.1632 224.9 24.3756 232.683 33.008 233.652ZM32.7901 235.593C42.4943 236.682 51.2443 229.699 52.3338 219.995C53.4233 210.29 46.4396 201.54 36.7354 200.451C27.0311 199.361 18.2811 206.345 17.1917 216.049C16.1022 225.753 23.0858 234.503 32.7901 235.593Z" fill="#22A800" fill-opacity="0.3"/>
<path d="M123.471 104.745L135.531 107.531L135.133 109.254L123.073 106.468L123.471 104.745ZM122.874 107.329L134.934 110.115L134.536 111.838L129.368 110.644L126.781 121.842L125.058 121.444L127.645 110.246L122.476 109.052L122.874 107.329Z" fill="#22A800" fill-opacity="0.3"/>
<path fill-rule="evenodd" clip-rule="evenodd" d="M124.17 129.216C132.634 131.171 141.08 125.894 143.035 117.431C144.99 108.967 139.714 100.521 131.25 98.5656C122.787 96.6104 114.34 101.887 112.385 110.35C110.43 118.814 115.706 127.26 124.17 129.216ZM123.731 131.118C133.245 133.316 142.74 127.385 144.938 117.87C147.136 108.356 141.205 98.8607 131.69 96.6628C122.175 94.4649 112.68 100.396 110.482 109.911C108.285 119.426 114.216 128.92 123.731 131.118Z" fill="#22A800" fill-opacity="0.3"/>
<path d="M201 168.177L211.897 174.046L211.059 175.603L200.162 169.734L201 168.177ZM199.743 170.512L210.64 176.381L209.801 177.938L205.131 175.423L199.681 185.541L198.124 184.703L203.574 174.584L198.904 172.069L199.743 170.512Z" fill="#22A800" fill-opacity="0.3"/>
<path fill-rule="evenodd" clip-rule="evenodd" d="M195.217 191.965C202.865 196.084 212.404 193.223 216.524 185.575C220.643 177.927 217.782 168.388 210.134 164.269C202.486 160.15 192.947 163.011 188.828 170.658C184.709 178.306 187.57 187.845 195.217 191.965ZM194.291 193.684C202.889 198.315 213.612 195.099 218.243 186.501C222.873 177.904 219.658 167.18 211.06 162.55C202.463 157.919 191.739 161.135 187.109 169.732C182.478 178.33 185.694 189.053 194.291 193.684Z" fill="#22A800" fill-opacity="0.3"/>
<path d="M302.3 211.763L312.639 209.917L312.903 211.394L302.564 213.24L302.3 211.763ZM302.695 213.979L313.035 212.133L313.299 213.61L308.867 214.401L310.581 224.002L309.104 224.266L307.39 214.665L302.959 215.456L302.695 213.979Z" fill="#22A800" fill-opacity="0.3"/>
<path fill-rule="evenodd" clip-rule="evenodd" d="M311.002 230.626C318.258 229.331 323.091 222.398 321.796 215.142C320.5 207.885 313.567 203.052 306.311 204.348C299.054 205.643 294.222 212.576 295.517 219.833C296.812 227.089 303.745 231.922 311.002 230.626ZM311.293 232.258C319.451 230.802 324.883 223.008 323.427 214.85C321.971 206.693 314.177 201.26 306.019 202.716C297.862 204.173 292.429 211.966 293.886 220.124C295.342 228.281 303.135 233.714 311.293 232.258Z" fill="#22A800" fill-opacity="0.3"/>
</svg>
